<?xml version="1.0" encoding="UTF-8" standalone="no"?>
<!DOCTYPE svg PUBLIC "-//W3C//DTD SVG 1.1//EN" "http://www.w3.org/Graphics/SVG/1.1/DTD/svg11.dtd">
<svg width="100%" height="100%" viewBox="0 0 345 74" version="1.1" xmlns="http://www.w3.org/2000/svg" xmlns:xlink="http://www.w3.org/1999/xlink" xml:space="preserve" xmlns:serif="http://www.serif.com/" style="fill-rule:evenodd;clip-rule:evenodd;stroke-linejoin:round;stroke-miterlimit:2;">
    <g transform="matrix(1,0,0,1,-58.7094,-39.9739)">
        <g transform="matrix(0.275046,0,0,0.275046,-2.55406,-26.2676)">
            <path id="hoofd---snavel" serif:id="hoofd - snavel" d="M397.364,338.062C397.364,338.062 374.267,337.772 372.258,337.629C351.968,336.188 357.264,294.057 312.524,309.926C311.265,310.373 301.702,299.105 301.702,299.105C301.702,299.105 319.348,291.364 328.291,290.671C357.741,288.11 366.236,306.218 374.577,319.065C376.864,322.587 397.276,337.939 397.364,338.062Z" style="fill:rgb(255,195,33);fill-rule:nonzero;"/>
        </g>
        <g transform="matrix(0.275046,0,0,0.275046,-2.55406,-26.2676)">
            <path id="borst" d="M374.971,354.716C374.971,354.716 361.796,354.225 360.949,354.37C350.911,356.097 342.439,364.919 339.655,368.22C344.818,374.513 345.691,378.693 346.58,383.108C357.532,387.68 363.607,395.572 367.181,401.977C379.59,384.43 374.971,354.716 374.971,354.716Z" style="fill:rgb(250,186,12);fill-rule:nonzero;"/>
        </g>
        <g transform="matrix(0.275046,0,0,0.275046,-2.55406,-26.2676)">
            <path id="buik" d="M346.765,399.321C346.765,399.321 357.509,407.919 359.261,417.882C343.473,434.388 325.25,445.351 307.623,443.241C317.476,432.358 315.642,433.75 319.751,429.091C343.683,419.961 346.765,399.321 346.765,399.321Z" style="fill:url(#_Radial1);fill-rule:nonzero;"/>
        </g>
        <g transform="matrix(0.275046,0,0,0.275046,-2.55406,-26.2676)">
            <path id="lichaam" d="M292.041,310.139L303.009,320.559C291.85,340.681 300.748,357.796 313.43,365.257C318.071,367.638 334.973,370.555 335.093,390.759C335.227,413.359 313.43,415.987 313.43,415.987L233.084,416.261C233.084,416.261 289.523,364.966 290.506,363.822C272.919,333.846 292.041,310.139 292.041,310.139ZM293.058,386.221C289.399,386.221 286.428,389.329 286.428,393.156C286.428,396.984 289.399,400.092 293.058,400.092C296.717,400.092 299.687,396.984 299.687,393.156C299.687,389.329 296.717,386.221 293.058,386.221ZM316.683,382.264C312.912,382.264 309.85,385.372 309.85,389.199C309.85,393.027 312.912,396.135 316.683,396.135C320.455,396.135 323.517,393.027 323.517,389.199C323.517,385.372 320.455,382.264 316.683,382.264Z" style="fill:url(#_Radial2);"/>
        </g>
        <g transform="matrix(0.275046,0,0,0.275046,-2.55406,-26.2676)">
            <circle id="circel-versiering" serif:id="circel versiering" cx="241.828" cy="336.638" r="8.619" style="fill:rgb(250,186,12);"/>
        </g>
        <g transform="matrix(0.275046,0,0,0.275046,-2.55406,-26.2676)">
            <circle id="circel-versiering1" serif:id="circel versiering" cx="266.138" cy="320.497" r="8.619" style="fill:rgb(255,201,54);"/>
        </g>
        <g transform="matrix(0.275046,0,0,0.275046,-2.55406,-26.2676)">
            <circle id="circel-versiering2" serif:id="circel versiering" cx="265.864" cy="358.912" r="8.619" style="fill:rgb(250,186,12);"/>
        </g>
        <g transform="matrix(0.275046,0,0,0.275046,-2.55406,-26.2676)">
            <circle id="circel-versiering3" serif:id="circel versiering" cx="232.318" cy="374.403" r="8.619" style="fill:url(#_Radial3);"/>
        </g>
        <g transform="matrix(0.275046,0,0,0.275046,-2.55406,-26.2676)">
            <path id="veertje-links" serif:id="veertje links" d="M277.043,430.709L261.851,430.795C261.851,430.795 225.85,466.255 224.836,466.91C218.895,472.581 226.873,480.825 232.716,475.529C234.12,475.174 277.043,430.71 277.043,430.71L277.043,430.709Z" style="fill:url(#_Radial4);fill-rule:nonzero;"/>
        </g>
        <g transform="matrix(0.275046,0,0,0.275046,-2.55406,-26.2676)">
            <path id="veertje-rechts" serif:id="veertje rechts" d="M304.732,430.785L288.717,430.788C288.717,430.788 240.695,479.598 239.681,480.253C233.74,485.924 241.718,494.169 247.561,488.872C248.965,488.518 304.732,430.784 304.732,430.784L304.732,430.785Z" style="fill:url(#_Radial5);fill-rule:nonzero;"/>
        </g>
        <g transform="matrix(0.275046,0,0,0.275046,-2.55406,-26.2676)">
            <path id="veertje-donker" serif:id="veertje donker" d="M244.451,430.472C244.451,430.472 233.198,441.271 232.184,441.926C226.243,447.597 234.221,455.842 240.064,450.545C241.468,450.191 260.483,430.458 260.483,430.458C260.577,430.42 244.451,430.472 244.451,430.472L244.451,430.472Z" style="fill:url(#_Linear6);fill-rule:nonzero;"/>
        </g>
        <g transform="matrix(0.275046,0,0,0.275046,-2.55406,-26.2676)">
            <g id="oog" transform="matrix(3.63576,0,0,3.63576,9.28594,95.5028)">
                <path d="M87.798,61.337C90.629,61.337 92.927,63.681 92.927,66.568C92.927,69.454 90.629,71.798 87.798,71.798C84.968,71.798 82.67,69.454 82.67,66.568C82.67,63.681 84.968,61.337 87.798,61.337ZM87.779,64.125C89.027,64.125 90.041,65.192 90.041,66.506C90.041,67.82 89.027,68.887 87.779,68.887C86.531,68.887 85.517,67.82 85.517,66.506C85.517,65.192 86.531,64.125 87.779,64.125Z" style="fill:url(#_Radial7);"/>
            </g>
        </g>
        <g transform="matrix(0.275046,0,0,0.275046,-2.55406,-26.2676)">
            <g transform="matrix(4.00692,0,0,4.00692,-208.845,-31.6578)">
                <g transform="matrix(72.0683,0,0,72.0683,163.218,117.121)">
                    <path d="M0.449,-0.5L0.553,-0.5L0.553,-0L0.449,-0L0.444,-0.073C0.43,-0.047 0.41,-0.026 0.385,-0.011C0.36,0.005 0.331,0.013 0.297,0.013C0.26,0.013 0.225,0.006 0.193,-0.008C0.161,-0.022 0.132,-0.041 0.108,-0.066C0.083,-0.09 0.064,-0.118 0.051,-0.151C0.037,-0.183 0.03,-0.217 0.03,-0.254C0.03,-0.29 0.037,-0.324 0.05,-0.355C0.063,-0.387 0.082,-0.414 0.105,-0.438C0.129,-0.462 0.157,-0.48 0.188,-0.494C0.219,-0.507 0.252,-0.514 0.288,-0.514C0.324,-0.514 0.356,-0.506 0.384,-0.489C0.412,-0.473 0.435,-0.452 0.453,-0.426L0.449,-0.5ZM0.294,-0.087C0.323,-0.087 0.349,-0.095 0.371,-0.109C0.393,-0.124 0.41,-0.143 0.422,-0.168C0.435,-0.193 0.441,-0.22 0.441,-0.25C0.441,-0.28 0.434,-0.308 0.422,-0.333C0.41,-0.357 0.393,-0.377 0.371,-0.391C0.349,-0.406 0.323,-0.413 0.294,-0.413C0.265,-0.413 0.239,-0.406 0.215,-0.391C0.191,-0.377 0.172,-0.357 0.158,-0.332C0.144,-0.307 0.137,-0.28 0.137,-0.25C0.137,-0.22 0.144,-0.192 0.158,-0.168C0.173,-0.143 0.192,-0.124 0.216,-0.109C0.24,-0.095 0.266,-0.087 0.294,-0.087Z" style="fill:rgb(250,186,12);fill-rule:nonzero;"/>
                </g>
                <g transform="matrix(72.0683,0,0,72.0683,205.947,117.121)">
                    <path d="M0.06,-0.5L0.164,-0.5L0.164,-0L0.06,-0L0.06,-0.5ZM0.113,-0.573C0.097,-0.573 0.084,-0.578 0.073,-0.588C0.062,-0.598 0.057,-0.611 0.057,-0.627C0.057,-0.642 0.062,-0.655 0.073,-0.666C0.084,-0.676 0.097,-0.682 0.113,-0.682C0.128,-0.682 0.141,-0.676 0.152,-0.666C0.162,-0.655 0.168,-0.642 0.168,-0.627C0.168,-0.611 0.162,-0.598 0.152,-0.588C0.141,-0.578 0.128,-0.573 0.113,-0.573Z" style="fill:rgb(250,186,12);fill-rule:nonzero;"/>
                </g>
                <g transform="matrix(72.0683,0,0,72.0683,221.73,117.121)">
                    <path d="M0.44,-0.5L0.544,-0.5L0.544,0.013C0.544,0.047 0.537,0.079 0.523,0.108C0.508,0.137 0.489,0.162 0.464,0.183C0.439,0.204 0.411,0.221 0.379,0.233C0.348,0.244 0.314,0.25 0.28,0.25C0.245,0.25 0.211,0.243 0.179,0.228C0.146,0.213 0.118,0.193 0.093,0.167C0.069,0.142 0.051,0.114 0.039,0.082L0.134,0.038C0.141,0.059 0.151,0.078 0.166,0.094C0.181,0.11 0.199,0.122 0.218,0.131C0.238,0.141 0.259,0.145 0.28,0.145C0.3,0.145 0.32,0.142 0.339,0.136C0.358,0.129 0.376,0.12 0.391,0.108C0.406,0.097 0.418,0.083 0.427,0.067C0.436,0.05 0.44,0.032 0.44,0.013L0.44,-0.072C0.424,-0.046 0.403,-0.026 0.377,-0.01C0.352,0.005 0.322,0.013 0.288,0.013C0.253,0.013 0.219,0.006 0.188,-0.008C0.157,-0.021 0.129,-0.04 0.106,-0.064C0.082,-0.088 0.063,-0.116 0.05,-0.148C0.037,-0.18 0.03,-0.214 0.03,-0.25C0.03,-0.286 0.037,-0.32 0.05,-0.352C0.063,-0.384 0.082,-0.412 0.106,-0.436C0.129,-0.46 0.157,-0.479 0.188,-0.493C0.219,-0.506 0.253,-0.513 0.288,-0.513C0.322,-0.513 0.352,-0.506 0.377,-0.49C0.403,-0.475 0.424,-0.454 0.44,-0.429L0.44,-0.5ZM0.289,-0.087C0.318,-0.087 0.343,-0.095 0.365,-0.11C0.387,-0.125 0.403,-0.144 0.416,-0.169C0.428,-0.194 0.434,-0.221 0.434,-0.25C0.434,-0.28 0.428,-0.307 0.415,-0.332C0.403,-0.356 0.386,-0.376 0.364,-0.391C0.343,-0.406 0.318,-0.413 0.289,-0.413C0.261,-0.413 0.235,-0.406 0.212,-0.391C0.189,-0.377 0.171,-0.357 0.157,-0.332C0.143,-0.307 0.137,-0.28 0.137,-0.25C0.137,-0.22 0.143,-0.193 0.157,-0.168C0.171,-0.143 0.19,-0.124 0.213,-0.109C0.236,-0.095 0.261,-0.087 0.289,-0.087Z" style="fill:rgb(250,186,12);fill-rule:nonzero;"/>
                </g>
                <g transform="matrix(72.0683,0,0,72.0683,264.919,117.121)">
                    <path d="M0.28,0.013C0.234,0.013 0.192,0.001 0.154,-0.023C0.116,-0.046 0.086,-0.078 0.064,-0.118C0.041,-0.158 0.03,-0.202 0.03,-0.25C0.03,-0.287 0.037,-0.321 0.05,-0.353C0.063,-0.385 0.08,-0.413 0.103,-0.437C0.126,-0.461 0.153,-0.48 0.183,-0.494C0.213,-0.507 0.246,-0.514 0.28,-0.514C0.318,-0.514 0.353,-0.506 0.385,-0.49C0.417,-0.474 0.445,-0.452 0.467,-0.425C0.49,-0.397 0.507,-0.365 0.517,-0.329C0.528,-0.292 0.531,-0.254 0.527,-0.214L0.141,-0.214C0.146,-0.191 0.154,-0.17 0.167,-0.151C0.179,-0.133 0.195,-0.118 0.215,-0.108C0.234,-0.097 0.256,-0.091 0.28,-0.091C0.305,-0.091 0.328,-0.097 0.349,-0.11C0.37,-0.123 0.387,-0.14 0.4,-0.163L0.506,-0.138C0.486,-0.094 0.456,-0.057 0.416,-0.029C0.375,-0.001 0.33,0.013 0.28,0.013ZM0.138,-0.293L0.422,-0.293C0.419,-0.317 0.41,-0.339 0.397,-0.358C0.383,-0.378 0.367,-0.393 0.346,-0.405C0.326,-0.416 0.304,-0.422 0.28,-0.422C0.256,-0.422 0.234,-0.417 0.214,-0.405C0.194,-0.394 0.177,-0.378 0.164,-0.359C0.151,-0.339 0.142,-0.317 0.138,-0.293Z" style="fill:rgb(250,186,12);fill-rule:nonzero;"/>
                </g>
                <g transform="matrix(72.0683,0,0,72.0683,304.855,117.121)">
                    <path d="M0.51,-0.314L0.51,-0L0.406,-0L0.406,-0.288C0.406,-0.31 0.401,-0.331 0.39,-0.349C0.379,-0.367 0.364,-0.382 0.346,-0.393C0.328,-0.403 0.308,-0.409 0.285,-0.409C0.263,-0.409 0.243,-0.403 0.224,-0.393C0.206,-0.382 0.191,-0.367 0.18,-0.349C0.17,-0.331 0.164,-0.31 0.164,-0.288L0.164,-0L0.06,-0L0.06,-0.5L0.164,-0.5L0.164,-0.447C0.181,-0.468 0.203,-0.484 0.228,-0.496C0.253,-0.508 0.281,-0.514 0.31,-0.514C0.347,-0.514 0.381,-0.505 0.411,-0.487C0.441,-0.469 0.465,-0.445 0.483,-0.415C0.501,-0.384 0.51,-0.351 0.51,-0.314Z" style="fill:rgb(250,186,12);fill-rule:nonzero;"/>
                </g>
                <g transform="matrix(72.0683,0,0,72.0683,344.509,117.121)">
                    <path d="M0.324,-0.396L0.219,-0.396L0.219,-0L0.115,-0L0.115,-0.396L0.035,-0.396L0.035,-0.5L0.115,-0.5L0.115,-0.657L0.219,-0.657L0.219,-0.5L0.324,-0.5L0.324,-0.396Z" style="fill:rgb(250,186,12);fill-rule:nonzero;"/>
                </g>
                <g transform="matrix(72.0683,0,0,72.0683,369.733,117.121)">
                    <path d="M0.06,-0.5L0.164,-0.5L0.164,-0L0.06,-0L0.06,-0.5ZM0.113,-0.573C0.097,-0.573 0.084,-0.578 0.073,-0.588C0.062,-0.598 0.057,-0.611 0.057,-0.627C0.057,-0.642 0.062,-0.655 0.073,-0.666C0.084,-0.676 0.097,-0.682 0.113,-0.682C0.128,-0.682 0.141,-0.676 0.152,-0.666C0.162,-0.655 0.168,-0.642 0.168,-0.627C0.168,-0.611 0.162,-0.598 0.152,-0.588C0.141,-0.578 0.128,-0.573 0.113,-0.573Z" style="fill:rgb(250,186,12);fill-rule:nonzero;"/>
                </g>
                <g transform="matrix(72.0683,0,0,72.0683,385.516,117.121)">
                    <path d="M0.386,-0.142L0.48,-0.091C0.457,-0.06 0.428,-0.034 0.393,-0.016C0.359,0.004 0.321,0.013 0.28,0.013C0.234,0.013 0.192,0.001 0.154,-0.023C0.116,-0.046 0.086,-0.078 0.064,-0.118C0.041,-0.158 0.03,-0.202 0.03,-0.25C0.03,-0.287 0.037,-0.321 0.05,-0.353C0.063,-0.385 0.08,-0.413 0.103,-0.437C0.126,-0.461 0.153,-0.48 0.183,-0.494C0.213,-0.507 0.246,-0.514 0.28,-0.514C0.321,-0.514 0.359,-0.505 0.393,-0.486C0.428,-0.466 0.457,-0.441 0.48,-0.409L0.386,-0.359C0.373,-0.375 0.356,-0.388 0.338,-0.397C0.319,-0.406 0.3,-0.41 0.28,-0.41C0.253,-0.41 0.228,-0.403 0.206,-0.388C0.184,-0.373 0.166,-0.354 0.153,-0.329C0.14,-0.305 0.134,-0.279 0.134,-0.25C0.134,-0.222 0.141,-0.195 0.154,-0.171C0.167,-0.147 0.184,-0.127 0.206,-0.113C0.228,-0.098 0.253,-0.091 0.28,-0.091C0.301,-0.091 0.321,-0.096 0.339,-0.105C0.358,-0.114 0.373,-0.127 0.386,-0.142Z" style="fill:rgb(250,186,12);fill-rule:nonzero;"/>
                </g>
                <g transform="matrix(72.0683,0,0,72.0683,422.25,117.121)">
                </g>
            </g>
        </g>
    </g>
    <defs>
        <radialGradient id="_Radial1" cx="0" cy="0" r="1" gradientUnits="userSpaceOnUse" gradientTransform="matrix(41.7969,3.56909,-4.20726,49.2705,327.891,430.847)"><stop offset="0" style="stop-color:rgb(250,139,12);stop-opacity:1"/><stop offset="1" style="stop-color:rgb(250,186,12);stop-opacity:1"/></radialGradient>
        <radialGradient id="_Radial2" cx="0" cy="0" r="1" gradientUnits="userSpaceOnUse" gradientTransform="matrix(176.49,1.66931,-1.39647,147.644,300.236,448.551)"><stop offset="0" style="stop-color:rgb(250,138,12);stop-opacity:1"/><stop offset="0.39" style="stop-color:rgb(250,186,12);stop-opacity:1"/><stop offset="1" style="stop-color:rgb(250,186,12);stop-opacity:1"/></radialGradient>
        <radialGradient id="_Radial3" cx="0" cy="0" r="1" gradientUnits="userSpaceOnUse" gradientTransform="matrix(8.61911,0,0,8.61911,232.318,374.403)"><stop offset="0" style="stop-color:rgb(250,202,58);stop-opacity:1"/><stop offset="1" style="stop-color:rgb(250,186,12);stop-opacity:1"/></radialGradient>
        <radialGradient id="_Radial4" cx="0" cy="0" r="1" gradientUnits="userSpaceOnUse" gradientTransform="matrix(68.3261,1.1128,-0.985881,60.5335,233.515,466.702)"><stop offset="0" style="stop-color:rgb(250,186,12);stop-opacity:1"/><stop offset="0.51" style="stop-color:rgb(250,186,12);stop-opacity:1"/><stop offset="1" style="stop-color:rgb(250,102,12);stop-opacity:1"/></radialGradient>
        <radialGradient id="_Radial5" cx="0" cy="0" r="1" gradientUnits="userSpaceOnUse" gradientTransform="matrix(113.581,22.167,-8.32599,42.6613,310.013,417.939)"><stop offset="0" style="stop-color:rgb(250,84,12);stop-opacity:1"/><stop offset="1" style="stop-color:rgb(250,186,12);stop-opacity:1"/></radialGradient>
        <linearGradient id="_Linear6" x1="0" y1="0" x2="1" y2="0" gradientUnits="userSpaceOnUse" gradientTransform="matrix(30.3963,0,0,30.3963,230.087,441.346)"><stop offset="0" style="stop-color:rgb(53,53,53);stop-opacity:1"/><stop offset="1" style="stop-color:black;stop-opacity:0"/></linearGradient>
        <radialGradient id="_Radial7" cx="0" cy="0" r="1" gradientUnits="userSpaceOnUse" gradientTransform="matrix(-20.4363,14.9388,-13.2136,-18.0761,329.61,352.513)"><stop offset="0" style="stop-color:rgb(216,116,3);stop-opacity:1"/><stop offset="1" style="stop-color:rgb(250,186,12);stop-opacity:1"/></radialGradient>
    </defs>
</svg>
